<?xml version="1.0" standalone="no"?><!DOCTYPE svg PUBLIC "-//W3C//DTD SVG 1.1//EN" "http://www.w3.org/Graphics/SVG/1.1/DTD/svg11.dtd"><svg t="1763712016719" class="icon" viewBox="0 0 1024 1024" version="1.1" xmlns="http://www.w3.org/2000/svg" p-id="6600" xmlns:xlink="http://www.w3.org/1999/xlink" width="200" height="200"><path d="M512.104 896c282.8 0 512-186.2 512-416s-229.2-416-512-416-512 186.2-512 416c0 90.2 35.4 173.6 95.4 241.8-3.8 49-22.8 92.6-42.8 125.8-11 18.4-22.2 33.2-30.4 43.2-4.2 5-7.4 8.8-9.8 11.4-1.2 1.2-2 2.2-2.6 2.8l-0.6 0.6c-9.2 9.2-11.8 22.8-6.8 34.8 5 12 16.6 19.8 29.6 19.8 57.4 0 115.2-17.8 163.2-38.6 45.8-20 84.8-43.8 108.6-61.2 63.6 23 134 35.8 208.2 35.8z m-106.2-542.4c13-4.4 27.4 0.2 35.8 11.2l70.4 93.8 70.4-93.8c8.2-11 22.6-15.6 35.8-11.2s21.8 16.6 21.8 30.4v192c0 17.6-14.4 32-32 32s-32-14.4-32-32v-96l-38.4 51.2c-6 8-15.6 12.8-25.6 12.8s-19.6-4.8-25.6-12.8l-38.4-51.2v96c0 17.6-14.4 32-32 32s-32-14.4-32-32V384c0-13.8 8.8-26 21.8-30.4z m346.2 76v0.8c0.2 0.2 1.2 1.6 4.4 3.4 7.8 4.6 19.2 8.2 36.6 13.6l1.2 0.4c14.8 4.4 34.6 10.4 50.4 20.4 18.2 11.4 34.8 30.4 35.2 59.8 0.4 30-15.2 52-35.6 64.6-19 11.8-41.8 15.8-61.4 15.2-24.4-0.8-47.4-8.8-65.2-14.8-2.8-1-5.4-1.8-8-2.8-16.8-5.6-25.8-23.8-20.2-40.4s23.8-25.8 40.4-20.2c3.4 1.2 6.6 2.2 9.8 3.2 18.2 6.2 31.2 10.6 45.2 11 10.6 0.4 20-2 25.6-5.6 2.4-1.6 3.6-3 4.2-4 0.4-0.8 1.2-2.4 1.2-5.4v-0.4c0-1.4 0-2.8-5.4-6.2-7.6-4.8-19.2-8.6-36-13.8l-2.4-0.8c-14.4-4.4-33.4-10-48.6-19.2-18-10.8-35.4-29.4-35.4-58.8-0.2-30.4 17.2-51.4 37-63.2 18.8-11 41-15 59.4-14.8 20 0.4 39.4 4.6 55.8 8.8 17 4.6 27.2 22 22.6 39.2s-22 27.2-39.2 22.6c-14.6-3.8-28.2-6.6-40.2-6.8-9.8-0.2-19.6 2.2-25.8 5.8-2.8 1.6-4.2 3.2-4.8 4-0.4 0.6-0.8 1.6-0.8 3.8z m-544 0v0.8c0.2 0.2 1.2 1.6 4.4 3.4 7.8 4.6 19.2 8.2 36.6 13.6l1.2 0.4c14.8 4.4 34.6 10.4 50.4 20.4 18.2 11.4 34.8 30.4 35.2 59.8 0.4 30-15.2 52-35.6 64.6-19 11.8-41.8 15.8-61.4 15.2-24.6-0.8-48.4-9-66.4-15.2-2.6-0.8-5-1.6-7.2-2.4-16.8-5.6-25.8-23.8-20.2-40.4s23.8-25.8 40.4-20.2c2.8 1 5.6 1.8 8.2 2.8 19 6.4 33 11.2 47.4 11.6 10.6 0.4 20-2 25.6-5.6 2.4-1.6 3.6-3 4.2-4 0.4-0.8 1.2-2.4 1.2-5.4v-0.4c0-1.4 0-2.8-5.4-6.2-7.6-4.8-19.2-8.6-36-13.8l-2.4-0.8c-14.4-4.4-33.4-10-48.6-19.2-18-10.6-35.4-29.2-35.6-58.6-0.2-30.4 17.2-51.4 37-63.2 18.8-11 41-15 59.4-14.8 19 0.2 44.4 4.2 62.2 8.8 17 4.6 27.2 22 22.6 39.2s-22 27.2-39.2 22.6c-13.2-3.6-33.6-6.6-46.6-6.8-9.8-0.2-19.6 2.2-25.8 5.8-2.8 1.6-4.2 3.2-4.8 4-0.4 0.6-0.8 1.6-0.8 3.8z" p-id="6601" fill="#1296db"></path></svg>