<?xml version="1.0" standalone="no"?><!DOCTYPE svg PUBLIC "-//W3C//DTD SVG 1.1//EN" "http://www.w3.org/Graphics/SVG/1.1/DTD/svg11.dtd"><svg t="1763712057614" class="icon" viewBox="0 0 1024 1024" version="1.1" xmlns="http://www.w3.org/2000/svg" p-id="7664" xmlns:xlink="http://www.w3.org/1999/xlink" width="200" height="200"><path d="M512 90.112c-232.448 0-421.888 189.44-421.888 421.888s189.44 421.888 421.888 421.888 421.888-189.44 421.888-421.888-189.44-421.888-421.888-421.888z m0 829.952c-225.792 0-408.064-182.784-408.064-408.064S286.208 103.936 512 103.936 920.064 286.72 920.064 512s-182.272 408.064-408.064 408.064z" p-id="7665" fill="#1296db"></path><path d="M654.336 589.312c-35.84-22.016-41.472-25.088-53.76-23.552-12.288 1.536-16.384 4.096-34.816 30.208-2.56 2.56-26.112 38.912-113.664-41.472C388.608 489.472 408.064 465.92 418.816 450.56c11.264-9.728 22.016-15.36 25.088-31.744 0-8.192-1.536-25.088-27.648-59.392-17.92-26.112-20.992-27.648-33.28-27.648-11.264-1.536-30.208 5.632-49.664 20.992-19.456 12.288-25.088 27.648-27.648 44.032-2.56 22.016-7.168 96.768 88.576 199.168 95.232 103.936 218.624 125.952 263.168 96.768 17.92-13.824 33.28-41.472 34.816-59.392 2.56-13.312-3.072-23.04-37.888-44.032z" p-id="7666" fill="#1296db"></path></svg>