<svg width="100%" height="100%" viewBox="0 0 900 900" fill="none" xmlns="http://www.w3.org/2000/svg" preserveAspectRatio="xMidYMid meet" shape-rendering="geometricPrecision">
    <defs>
        <linearGradient id="primary" x1="0%" y1="0%" x2="100%" y2="100%">
            <stop offset="0%" style="stop-color:#326CE5;stop-opacity:1" />
            <stop offset="100%" style="stop-color:#5B9EFF;stop-opacity:1" />
        </linearGradient>

        <linearGradient id="secondary" x1="0%" y1="0%" x2="100%" y2="100%">
            <stop offset="0%" style="stop-color:#06B6D4;stop-opacity:1" />
            <stop offset="100%" style="stop-color:#22D3EE;stop-opacity:1" />
        </linearGradient>

        <linearGradient id="accent" x1="0%" y1="0%" x2="100%" y2="100%">
            <stop offset="0%" style="stop-color:#8B5CF6;stop-opacity:1" />
            <stop offset="100%" style="stop-color:#A78BFA;stop-opacity:1" />
        </linearGradient>

        <linearGradient id="success" x1="0%" y1="0%" x2="100%" y2="100%">
            <stop offset="0%" style="stop-color:#10B981;stop-opacity:1" />
            <stop offset="100%" style="stop-color:#34D399;stop-opacity:1" />
        </linearGradient>

        <linearGradient id="warning" x1="0%" y1="0%" x2="100%" y2="100%">
            <stop offset="0%" style="stop-color:#F59E0B;stop-opacity:1" />
            <stop offset="100%" style="stop-color:#FBBF24;stop-opacity:1" />
        </linearGradient>

        <filter id="glow">
            <feGaussianBlur stdDeviation="4" result="blur"/>
            <feFlood flood-color="#326CE5" flood-opacity="0.5"/>
            <feComposite in2="blur" operator="in"/>
            <feMerge>
                <feMergeNode/>
                <feMergeNode in="SourceGraphic"/>
            </feMerge>
        </filter>

        <filter id="shadow">
            <feDropShadow dx="0" dy="4" stdDeviation="10" flood-opacity="0.2"/>
        </filter>

        <filter id="shadow-strong">
            <feDropShadow dx="0" dy="6" stdDeviation="12" flood-opacity="0.3"/>
        </filter>
    </defs>

    <!-- 背景装饰圆环 -->
    <circle cx="450" cy="450" r="380" fill="none" stroke="url(#primary)" stroke-width="2" opacity="0.08">
        <animateTransform attributeName="transform" type="rotate" from="0 450 450" to="360 450 450" dur="150s" repeatCount="indefinite"/>
    </circle>
    <circle cx="450" cy="450" r="320" fill="none" stroke="url(#secondary)" stroke-width="2" opacity="0.1">
        <animateTransform attributeName="transform" type="rotate" from="360 450 450" to="0 450 450" dur="110s" repeatCount="indefinite"/>
    </circle>
    <circle cx="450" cy="450" r="260" fill="none" stroke="url(#accent)" stroke-width="2" opacity="0.08">
        <animateTransform attributeName="transform" type="rotate" from="0 450 450" to="360 450 450" dur="180s" repeatCount="indefinite"/>
    </circle>

    <!-- 服务网格背景 -->
    <g opacity="0.06">
        <path d="M 200 200 L 700 200 M 200 450 L 700 450 M 200 700 L 700 700" stroke="url(#primary)" stroke-width="1.5"/>
        <path d="M 200 200 L 200 700 M 450 200 L 450 700 M 700 200 L 700 700" stroke="url(#primary)" stroke-width="1.5"/>
    </g>

    <!-- 中心 Kubernetes 舵轮 - 放大 -->
    <g transform="translate(450, 450)">
        <!-- 外层光晕脉动 -->
        <circle cx="0" cy="0" r="110" fill="url(#primary)" opacity="0.12">
            <animate attributeName="r" values="110;125;110" dur="4s" repeatCount="indefinite"/>
            <animate attributeName="opacity" values="0.12;0.22;0.12" dur="4s" repeatCount="indefinite"/>
        </circle>

        <!-- 主圆环 -->
        <circle cx="0" cy="0" r="88" fill="white" stroke="url(#primary)" stroke-width="6" filter="url(#shadow-strong)"/>
        <circle cx="0" cy="0" r="76" fill="url(#primary)" opacity="0.12"/>

        <!-- 中心核心 -->
        <circle cx="0" cy="0" r="40" fill="url(#primary)"/>
        <circle cx="0" cy="0" r="28" fill="white"/>
        <circle cx="0" cy="0" r="16" fill="url(#primary)">
            <animate attributeName="r" values="16;19;16" dur="3s" repeatCount="indefinite"/>
        </circle>

        <!-- K8s 舵轮 - 7个辐条 -->
        <g opacity="0.95" filter="url(#shadow)">
            <g transform="rotate(0)">
                <rect x="-7" y="-102" width="14" height="56" rx="7" fill="url(#primary)"/>
                <circle cx="0" cy="-112" r="19" fill="url(#primary)"/>
                <circle cx="0" cy="-112" r="12" fill="white"/>
                <circle cx="0" cy="-112" r="6" fill="url(#secondary)">
                    <animate attributeName="r" values="6;8;6" dur="2s" repeatCount="indefinite"/>
                    <animate attributeName="opacity" values="1;0.6;1" dur="2s" repeatCount="indefinite"/>
                </circle>
            </g>

            <g transform="rotate(51.43)">
                <rect x="-7" y="-102" width="14" height="56" rx="7" fill="url(#primary)"/>
                <circle cx="0" cy="-112" r="19" fill="url(#primary)"/>
                <circle cx="0" cy="-112" r="12" fill="white"/>
                <circle cx="0" cy="-112" r="6" fill="url(#secondary)">
                    <animate attributeName="r" values="6;8;6" dur="2s" repeatCount="indefinite" begin="0.3s"/>
                    <animate attributeName="opacity" values="1;0.6;1" dur="2s" repeatCount="indefinite" begin="0.3s"/>
                </circle>
            </g>

            <g transform="rotate(102.86)">
                <rect x="-7" y="-102" width="14" height="56" rx="7" fill="url(#primary)"/>
                <circle cx="0" cy="-112" r="19" fill="url(#primary)"/>
                <circle cx="0" cy="-112" r="12" fill="white"/>
                <circle cx="0" cy="-112" r="6" fill="url(#secondary)">
                    <animate attributeName="r" values="6;8;6" dur="2s" repeatCount="indefinite" begin="0.6s"/>
                    <animate attributeName="opacity" values="1;0.6;1" dur="2s" repeatCount="indefinite" begin="0.6s"/>
                </circle>
            </g>

            <g transform="rotate(154.29)">
                <rect x="-7" y="-102" width="14" height="56" rx="7" fill="url(#primary)"/>
                <circle cx="0" cy="-112" r="19" fill="url(#primary)"/>
                <circle cx="0" cy="-112" r="12" fill="white"/>
                <circle cx="0" cy="-112" r="6" fill="url(#secondary)">
                    <animate attributeName="r" values="6;8;6" dur="2s" repeatCount="indefinite" begin="0.9s"/>
                    <animate attributeName="opacity" values="1;0.6;1" dur="2s" repeatCount="indefinite" begin="0.9s"/>
                </circle>
            </g>

            <g transform="rotate(205.72)">
                <rect x="-7" y="-102" width="14" height="56" rx="7" fill="url(#primary)"/>
                <circle cx="0" cy="-112" r="19" fill="url(#primary)"/>
                <circle cx="0" cy="-112" r="12" fill="white"/>
                <circle cx="0" cy="-112" r="6" fill="url(#secondary)">
                    <animate attributeName="r" values="6;8;6" dur="2s" repeatCount="indefinite" begin="1.2s"/>
                    <animate attributeName="opacity" values="1;0.6;1" dur="2s" repeatCount="indefinite" begin="1.2s"/>
                </circle>
            </g>

            <g transform="rotate(257.15)">
                <rect x="-7" y="-102" width="14" height="56" rx="7" fill="url(#primary)"/>
                <circle cx="0" cy="-112" r="19" fill="url(#primary)"/>
                <circle cx="0" cy="-112" r="12" fill="white"/>
                <circle cx="0" cy="-112" r="6" fill="url(#secondary)">
                    <animate attributeName="r" values="6;8;6" dur="2s" repeatCount="indefinite" begin="1.5s"/>
                    <animate attributeName="opacity" values="1;0.6;1" dur="2s" repeatCount="indefinite" begin="1.5s"/>
                </circle>
            </g>

            <g transform="rotate(308.58)">
                <rect x="-7" y="-102" width="14" height="56" rx="7" fill="url(#primary)"/>
                <circle cx="0" cy="-112" r="19" fill="url(#primary)"/>
                <circle cx="0" cy="-112" r="12" fill="white"/>
                <circle cx="0" cy="-112" r="6" fill="url(#secondary)">
                    <animate attributeName="r" values="6;8;6" dur="2s" repeatCount="indefinite" begin="1.8s"/>
                    <animate attributeName="opacity" values="1;0.6;1" dur="2s" repeatCount="indefinite" begin="1.8s"/>
                </circle>
            </g>
        </g>

        <!-- 管理平台标识 -->
        <text x="0" y="150" font-family="Arial, sans-serif" font-size="16" font-weight="600" fill="url(#primary)" text-anchor="middle" opacity="0.8">Multi-Cluster</text>
    </g>

    <!-- 左上角集群 -->
    <g transform="translate(180, 200)" opacity="0.92">
        <circle cx="0" cy="0" r="48" fill="url(#primary)" opacity="0.12"/>
        <circle cx="0" cy="0" r="44" fill="white" filter="url(#shadow)"/>
        <circle cx="0" cy="0" r="35" fill="url(#primary)"/>
        <path d="M -16,-16 L 0,-25 L 16,-16 L 16,16 L -16,16 Z" fill="white" opacity="0.95"/>
        <text x="0" y="75" font-family="Arial" font-size="13" font-weight="500" fill="url(#primary)" text-anchor="middle">Cluster A</text>

        <!-- 3个工作节点 -->
        <g opacity="0.9">
            <circle cx="-70" cy="85" r="28" fill="url(#success)" opacity="0.15"/>
            <circle cx="-70" cy="85" r="24" fill="white" filter="url(#shadow)"/>
            <rect x="-78" y="77" width="16" height="16" rx="3" fill="url(#success)"/>
            <circle cx="-70" cy="85" r="4" fill="white">
                <animate attributeName="opacity" values="1;0.5;1" dur="2.5s" repeatCount="indefinite"/>
            </circle>

            <circle cx="0" cy="100" r="28" fill="url(#success)" opacity="0.15"/>
            <circle cx="0" cy="100" r="24" fill="white" filter="url(#shadow)"/>
            <rect x="-8" y="92" width="16" height="16" rx="3" fill="url(#success)"/>
            <circle cx="0" cy="100" r="4" fill="white">
                <animate attributeName="opacity" values="1;0.5;1" dur="2.5s" repeatCount="indefinite" begin="0.4s"/>
            </circle>

            <circle cx="70" cy="85" r="28" fill="url(#success)" opacity="0.15"/>
            <circle cx="70" cy="85" r="24" fill="white" filter="url(#shadow)"/>
            <rect x="62" y="77" width="16" height="16" rx="3" fill="url(#success)"/>
            <circle cx="70" cy="85" r="4" fill="white">
                <animate attributeName="opacity" values="1;0.5;1" dur="2.5s" repeatCount="indefinite" begin="0.8s"/>
            </circle>
        </g>

        <path d="M 0 44 L -56 65" stroke="url(#primary)" stroke-width="3.5" opacity="0.35" stroke-dasharray="6,4">
            <animate attributeName="stroke-dashoffset" from="0" to="10" dur="2s" repeatCount="indefinite"/>
        </path>
        <path d="M 0 44 L 0 76" stroke="url(#primary)" stroke-width="3.5" opacity="0.35" stroke-dasharray="6,4">
            <animate attributeName="stroke-dashoffset" from="0" to="10" dur="2s" repeatCount="indefinite"/>
        </path>
        <path d="M 0 44 L 56 65" stroke="url(#primary)" stroke-width="3.5" opacity="0.35" stroke-dasharray="6,4">
            <animate attributeName="stroke-dashoffset" from="0" to="10" dur="2s" repeatCount="indefinite"/>
        </path>
    </g>

    <!-- 右上角集群 -->
    <g transform="translate(720, 200)" opacity="0.92">
        <circle cx="0" cy="0" r="48" fill="url(#accent)" opacity="0.12"/>
        <circle cx="0" cy="0" r="44" fill="white" filter="url(#shadow)"/>
        <circle cx="0" cy="0" r="35" fill="url(#accent)"/>
        <path d="M -16,-16 L 0,-25 L 16,-16 L 16,16 L -16,16 Z" fill="white" opacity="0.95"/>
        <text x="0" y="75" font-family="Arial" font-size="13" font-weight="500" fill="url(#accent)" text-anchor="middle">Cluster B</text>

        <g opacity="0.9">
            <circle cx="-70" cy="85" r="28" fill="url(#success)" opacity="0.15"/>
            <circle cx="-70" cy="85" r="24" fill="white" filter="url(#shadow)"/>
            <rect x="-78" y="77" width="16" height="16" rx="3" fill="url(#success)"/>
            <circle cx="-70" cy="85" r="4" fill="white">
                <animate attributeName="opacity" values="1;0.5;1" dur="2.5s" repeatCount="indefinite" begin="0.2s"/>
            </circle>

            <circle cx="0" cy="100" r="28" fill="url(#success)" opacity="0.15"/>
            <circle cx="0" cy="100" r="24" fill="white" filter="url(#shadow)"/>
            <rect x="-8" y="92" width="16" height="16" rx="3" fill="url(#success)"/>
            <circle cx="0" cy="100" r="4" fill="white">
                <animate attributeName="opacity" values="1;0.5;1" dur="2.5s" repeatCount="indefinite" begin="0.6s"/>
            </circle>

            <circle cx="70" cy="85" r="28" fill="url(#success)" opacity="0.15"/>
            <circle cx="70" cy="85" r="24" fill="white" filter="url(#shadow)"/>
            <rect x="62" y="77" width="16" height="16" rx="3" fill="url(#success)"/>
            <circle cx="70" cy="85" r="4" fill="white">
                <animate attributeName="opacity" values="1;0.5;1" dur="2.5s" repeatCount="indefinite" begin="1s"/>
            </circle>
        </g>

        <path d="M 0 44 L -56 65" stroke="url(#accent)" stroke-width="3.5" opacity="0.35" stroke-dasharray="6,4">
            <animate attributeName="stroke-dashoffset" from="0" to="10" dur="2s" repeatCount="indefinite"/>
        </path>
        <path d="M 0 44 L 0 76" stroke="url(#accent)" stroke-width="3.5" opacity="0.35" stroke-dasharray="6,4">
            <animate attributeName="stroke-dashoffset" from="0" to="10" dur="2s" repeatCount="indefinite"/>
        </path>
        <path d="M 0 44 L 56 65" stroke="url(#accent)" stroke-width="3.5" opacity="0.35" stroke-dasharray="6,4">
            <animate attributeName="stroke-dashoffset" from="0" to="10" dur="2s" repeatCount="indefinite"/>
        </path>
    </g>

    <!-- 左下角集群 -->
    <g transform="translate(180, 700)" opacity="0.92">
        <circle cx="0" cy="0" r="48" fill="url(#warning)" opacity="0.12"/>
        <circle cx="0" cy="0" r="44" fill="white" filter="url(#shadow)"/>
        <circle cx="0" cy="0" r="35" fill="url(#warning)"/>
        <path d="M -16,-16 L 0,-25 L 16,-16 L 16,16 L -16,16 Z" fill="white" opacity="0.95"/>
        <text x="0" y="-70" font-family="Arial" font-size="13" font-weight="500" fill="url(#warning)" text-anchor="middle">Cluster C</text>

        <g opacity="0.9">
            <circle cx="-70" cy="-85" r="28" fill="url(#success)" opacity="0.15"/>
            <circle cx="-70" cy="-85" r="24" fill="white" filter="url(#shadow)"/>
            <rect x="-78" y="-93" width="16" height="16" rx="3" fill="url(#success)"/>
            <circle cx="-70" cy="-85" r="4" fill="white">
                <animate attributeName="opacity" values="1;0.5;1" dur="2.5s" repeatCount="indefinite" begin="0.3s"/>
            </circle>

            <circle cx="0" cy="-100" r="28" fill="url(#success)" opacity="0.15"/>
            <circle cx="0" cy="-100" r="24" fill="white" filter="url(#shadow)"/>
            <rect x="-8" y="-108" width="16" height="16" rx="3" fill="url(#success)"/>
            <circle cx="0" cy="-100" r="4" fill="white">
                <animate attributeName="opacity" values="1;0.5;1" dur="2.5s" repeatCount="indefinite" begin="0.7s"/>
            </circle>

            <circle cx="70" cy="-85" r="28" fill="url(#success)" opacity="0.15"/>
            <circle cx="70" cy="-85" r="24" fill="white" filter="url(#shadow)"/>
            <rect x="62" y="-93" width="16" height="16" rx="3" fill="url(#success)"/>
            <circle cx="70" cy="-85" r="4" fill="white">
                <animate attributeName="opacity" values="1;0.5;1" dur="2.5s" repeatCount="indefinite" begin="1.1s"/>
            </circle>
        </g>

        <path d="M 0 -44 L -56 -65" stroke="url(#warning)" stroke-width="3.5" opacity="0.35" stroke-dasharray="6,4">
            <animate attributeName="stroke-dashoffset" from="0" to="10" dur="2s" repeatCount="indefinite"/>
        </path>
        <path d="M 0 -44 L 0 -76" stroke="url(#warning)" stroke-width="3.5" opacity="0.35" stroke-dasharray="6,4">
            <animate attributeName="stroke-dashoffset" from="0" to="10" dur="2s" repeatCount="indefinite"/>
        </path>
        <path d="M 0 -44 L 56 -65" stroke="url(#warning)" stroke-width="3.5" opacity="0.35" stroke-dasharray="6,4">
            <animate attributeName="stroke-dashoffset" from="0" to="10" dur="2s" repeatCount="indefinite"/>
        </path>
    </g>

    <!-- 右下角集群 -->
    <g transform="translate(720, 700)" opacity="0.92">
        <circle cx="0" cy="0" r="48" fill="url(#secondary)" opacity="0.12"/>
        <circle cx="0" cy="0" r="44" fill="white" filter="url(#shadow)"/>
        <circle cx="0" cy="0" r="35" fill="url(#secondary)"/>
        <path d="M -16,-16 L 0,-25 L 16,-16 L 16,16 L -16,16 Z" fill="white" opacity="0.95"/>
        <text x="0" y="-70" font-family="Arial" font-size="13" font-weight="500" fill="url(#secondary)" text-anchor="middle">Cluster D</text>

        <g opacity="0.9">
            <circle cx="-70" cy="-85" r="28" fill="url(#success)" opacity="0.15"/>
            <circle cx="-70" cy="-85" r="24" fill="white" filter="url(#shadow)"/>
            <rect x="-78" y="-93" width="16" height="16" rx="3" fill="url(#success)"/>
            <circle cx="-70" cy="-85" r="4" fill="white">
                <animate attributeName="opacity" values="1;0.5;1" dur="2.5s" repeatCount="indefinite" begin="0.25s"/>
            </circle>

            <circle cx="0" cy="-100" r="28" fill="url(#success)" opacity="0.15"/>
            <circle cx="0" cy="-100" r="24" fill="white" filter="url(#shadow)"/>
            <rect x="-8" y="-108" width="16" height="16" rx="3" fill="url(#success)"/>
            <circle cx="0" cy="-100" r="4" fill="white">
                <animate attributeName="opacity" values="1;0.5;1" dur="2.5s" repeatCount="indefinite" begin="0.65s"/>
            </circle>

            <circle cx="70" cy="-85" r="28" fill="url(#success)" opacity="0.15"/>
            <circle cx="70" cy="-85" r="24" fill="white" filter="url(#shadow)"/>
            <rect x="62" y="-93" width="16" height="16" rx="3" fill="url(#success)"/>
            <circle cx="70" cy="-85" r="4" fill="white">
                <animate attributeName="opacity" values="1;0.5;1" dur="2.5s" repeatCount="indefinite" begin="1.05s"/>
            </circle>
        </g>

        <path d="M 0 -44 L -56 -65" stroke="url(#secondary)" stroke-width="3.5" opacity="0.35" stroke-dasharray="6,4">
            <animate attributeName="stroke-dashoffset" from="0" to="10" dur="2s" repeatCount="indefinite"/>
        </path>
        <path d="M 0 -44 L 0 -76" stroke="url(#secondary)" stroke-width="3.5" opacity="0.35" stroke-dasharray="6,4">
            <animate attributeName="stroke-dashoffset" from="0" to="10" dur="2s" repeatCount="indefinite"/>
        </path>
        <path d="M 0 -44 L 56 -65" stroke="url(#secondary)" stroke-width="3.5" opacity="0.35" stroke-dasharray="6,4">
            <animate attributeName="stroke-dashoffset" from="0" to="10" dur="2s" repeatCount="indefinite"/>
        </path>
    </g>

    <!-- 集群到中心的连接线 -->
    <g opacity="0.25">
        <path d="M 245 295 Q 320 340 380 390" stroke="url(#primary)" stroke-width="5" fill="none" stroke-dasharray="10,6">
            <animate attributeName="stroke-dashoffset" from="0" to="16" dur="3s" repeatCount="indefinite"/>
        </path>

        <path d="M 655 295 Q 580 340 520 390" stroke="url(#accent)" stroke-width="5" fill="none" stroke-dasharray="10,6">
            <animate attributeName="stroke-dashoffset" from="0" to="16" dur="3s" repeatCount="indefinite"/>
        </path>

        <path d="M 245 605 Q 320 560 380 510" stroke="url(#warning)" stroke-width="5" fill="none" stroke-dasharray="10,6">
            <animate attributeName="stroke-dashoffset" from="0" to="16" dur="3s" repeatCount="indefinite"/>
        </path>

        <path d="M 655 605 Q 580 560 520 510" stroke="url(#secondary)" stroke-width="5" fill="none" stroke-dasharray="10,6">
            <animate attributeName="stroke-dashoffset" from="0" to="16" dur="3s" repeatCount="indefinite"/>
        </path>
    </g>

    <!-- 数据流动粒子 -->
    <g opacity="0.85">
        <circle cx="0" cy="0" r="8" fill="url(#primary)" filter="url(#glow)">
            <animateMotion path="M 245 295 Q 320 340 380 390" dur="3s" repeatCount="indefinite"/>
            <animate attributeName="opacity" values="0;1;1;0" dur="3s" repeatCount="indefinite"/>
        </circle>

        <circle cx="0" cy="0" r="8" fill="url(#accent)" filter="url(#glow)">
            <animateMotion path="M 655 295 Q 580 340 520 390" dur="3s" repeatCount="indefinite"/>
            <animate attributeName="opacity" values="0;1;1;0" dur="3s" repeatCount="indefinite"/>
        </circle>

        <circle cx="0" cy="0" r="8" fill="url(#warning)" filter="url(#glow)">
            <animateMotion path="M 245 605 Q 320 560 380 510" dur="3s" repeatCount="indefinite"/>
            <animate attributeName="opacity" values="0;1;1;0" dur="3s" repeatCount="indefinite"/>
        </circle>

        <circle cx="0" cy="0" r="8" fill="url(#secondary)" filter="url(#glow)">
            <animateMotion path="M 655 605 Q 580 560 520 510" dur="3s" repeatCount="indefinite"/>
            <animate attributeName="opacity" values="0;1;1;0" dur="3s" repeatCount="indefinite"/>
        </circle>
    </g>

    <!-- 微服务治理层标题 -->
    <text x="450" y="130" font-family="Arial, sans-serif" font-size="18" font-weight="600" fill="url(#primary)" text-anchor="middle" opacity="0.7">Kube Nova</text>

    <!-- 服务网格图标 -->
    <g transform="translate(100, 450)" opacity="0.4">
        <circle cx="0" cy="0" r="5" fill="url(#secondary)"/>
        <circle cx="40" cy="0" r="5" fill="url(#secondary)"/>
        <circle cx="20" cy="35" r="5" fill="url(#secondary)"/>
        <path d="M 0 0 L 40 0 L 20 35 Z" stroke="url(#secondary)" stroke-width="2" fill="none"/>
    </g>

    <g transform="translate(750, 450)" opacity="0.4">
        <circle cx="0" cy="0" r="5" fill="url(#accent)"/>
        <circle cx="40" cy="0" r="5" fill="url(#accent)"/>
        <circle cx="20" cy="35" r="5" fill="url(#accent)"/>
        <path d="M 0 0 L 40 0 L 20 35 Z" stroke="url(#accent)" stroke-width="2" fill="none"/>
    </g>
</svg>